<svg xmlns="http://www.w3.org/2000/svg" viewBox="0 0 202 39">
	<path fill="#C83E2C" d="M29 11c2.21 0 4-1.79 4-4s-1.79-4-4-4-4 1.79-4 4 1.79 4 4 4zm0-6a2 2 0 1 1 0 4 2 2 0 0 1 0-4zm122 6c2.21 0 4-1.79 4-4s-1.79-4-4-4-4 1.79-4 4 1.79 4 4 4zm0-6a2 2 0 1 1 0 4 2 2 0 0 1 0-4zM10 33h2v-8h-2v8zM9 13c2.21 0 4-1.79 4-4s-1.79-4-4-4-4 1.79-4 4 1.79 4 4 4zm0-6a2 2 0 1 1 0 4 2 2 0 0 1 0-4zM6 39h2V25H6v14zm7-25H5a2 2 0 0 0-2 2v6H0v2h5v-7a1 1 0 0 1 1-1h6a1 1 0 0 1 1 1v5h-3v2h5v-8a2 2 0 0 0-2-2zm112-3c2.21 0 4-1.79 4-4s-1.79-4-4-4-4 1.79-4 4 1.79 4 4 4zm0-6a2 2 0 1 1 0 4 2 2 0 0 1 0-4zM26 33h2v-9h-2v9zm31-14c2.21 0 4-1.79 4-4s-1.79-4-4-4-4 1.79-4 4 1.79 4 4 4zm0-6a2 2 0 1 1 0 4 2 2 0 0 1 0-4zm121-6a3.963 3.963 0 0 0-1-2.62V0h-1v3.555c-.59-.344-1.268-.555-2-.555s-1.41.21-2 .555V0h-1v4.38c-.615.703-1 1.613-1 2.62 0 2.21 1.79 4 4 4s4-1.79 4-4zm-4-2a2 2 0 1 1 0 4 2 2 0 0 1 0-4zm-69 19c2.21 0 4-1.79 4-4s-1.79-4-4-4-4 1.79-4 4 1.79 4 4 4zm0-6a2 2 0 1 1 0 4 2 2 0 0 1 0-4zm70-11h-2v1h2V7zm-93 6c2.21 0 4-1.79 4-4s-1.79-4-4-4-4 1.79-4 4 1.79 4 4 4zm0-6a2 2 0 1 1 0 4 2 2 0 0 1 0-4zm119 17a5 5 0 0 0-10 0c4.202 0 5.24.005 10 0zm-5-1a1 1 0 1 1 0-2 1 1 0 0 1 0 2zm-44 16h2V24h-2v15zm-4 0h2V24h-2v15zm-17-25a2 2 0 0 0-2-2h-8a2 2 0 0 0-2 2v7h-2v2h4v-8a1 1 0 0 1 1-1h6a1 1 0 0 1 1 1v8h4v-2h-2v-7zm-3 10h-2v15h5v-2h-3V24zm27-12h-8a2 2 0 0 0-2 2v12h2V15a1 1 0 0 1 1-1h6a1 1 0 0 1 1 1v11h2V14a2 2 0 0 0-2-2zm20 27h2v-4h-2v4zm3-27h-8a2 2 0 0 0-2 2v23h2V15a1 1 0 0 1 1-1h6a1 1 0 0 1 1 1v22h2V14a2 2 0 0 0-2-2zm22 13h-8a2 2 0 0 0-2 2v12h2V28a1 1 0 0 1 1-1h6a1 1 0 0 1 1 1v11h2V27a2 2 0 0 0-2-2zm-29 14h2v-4h-2v4zm-47-15h-2v15h3v-2h-1V24zm51-5v-1h1v-1h-1l-1-1-1 1h-1v1h1v1h2zm-66 6h-8a2 2 0 0 0-2 2v12h2V28a1 1 0 0 1 1-1h6a1 1 0 0 1 1 1v11h2V27a2 2 0 0 0-2-2zm-44-5H49v-5h-2v7h4v11h2V23a1 1 0 0 1 1-1h6a1 1 0 0 1 1 1v10h2V22h4v-7h-2v5zm14 19h2V25h-2v14zm-19-8h-2v8h8v-2h-6v-6zm-6 6h-6v2h8v-8h-2v6zM35 14a2 2 0 0 0-2-2h-8a2 2 0 0 0-2 2v8h5v-2h-3v-5a1 1 0 0 1 1-1h6a1 1 0 0 1 1 1v7h5v-2h-3v-6zm71 25h2v-2h-2v2zm-4 0h2v-2h-2v2zm-72 0h2V24h-2v15zm53 0h2V25h-2v14zm3-25h-8a2 2 0 0 0-2 2v11h2V17a1 1 0 0 1 1-1h6a1 1 0 0 1 1 1v10h2V16a2 2 0 0 0-2-2zm108 24h4v-2h-4v2z"/>
</svg>
