<svg xmlns="http://www.w3.org/2000/svg" viewBox="0 0 26 37">
	<path fill="#FFF" d="M19 6c0-3.314-2.686-6-6-6S7 2.686 7 6v7H0v24h26V13h-7V6zM9 5c0-1.657 1.79-3 4-3s4 1.343 4 3v8H9V5zM2 35V15h22v20H2zm5-10c0 3.314 2.686 6 6 6s6-2.686 6-6-2.686-6-6-6-6 2.686-6 6zm6.5 3c-.276 0-.5-.223-.5-.5V25h-.5c-.208 0-.386-.127-.46-.308-.026-.06-.04-.124-.04-.19v-3c0-.277.224-.5.5-.5s.5.223.5.5V24h.5c.276 0 .5.223.5.5v3c0 .275-.224.5-.5.5zm-1 0c-.276 0-.5-.224-.5-.5s.224-.5.5-.5.5.224.5.5-.224.5-.5.5z"/>
</svg>
