<svg xmlns="http://www.w3.org/2000/svg" viewBox="0 0 32 32">
	<path fill="#F3DF93" d="M12.632 16.59l-8.42-2.695v1.684l8.42 2.69v-1.68zM0 3.79v19.368l16 5.053V8.85L0 3.79zm15.158 22.4L1.684 21.98V6.063l13.474 4.21V26.19zm-2.526-13.81l-8.42-2.695v1.684l8.42 2.69v-1.68zm0 8.42l-8.42-2.694v1.684l8.42 2.695V20.8zm6.736-2.526l8.42-2.695v-1.69l-8.42 2.69v1.68zM16 8.844V28.21l16-5.052V3.79L16 8.843zm.842 1.514l13.474-4.21v15.83L16.842 26.19V10.358zm2.526 3.706l8.42-2.695V9.68l-8.42 2.694v1.684zm0 8.42l8.42-2.694v-1.684L19.37 20.8v1.685z"/>
</svg>
