<svg xmlns="http://www.w3.org/2000/svg" viewBox="0 0 32 32">
	<path fill="#C83E2C" d="M30.118 8.706H24.47l-1.88-2.824C22.024 4.942 21.553 4 20.706 4h-9.412c-.847 0-1.318 1.13-1.882 1.882L7.53 8.706H1.88c-.847 0-1.882.94-1.882 1.882v16c0 .847.753 1.883 1.882 1.883h28.236c.94 0 1.882-1.03 1.882-1.88v-16c0-.94-.847-1.88-1.882-1.88zm0 17.882H1.882v-16h6.683l2.73-4.706h9.41l2.354 4.706h7.05v16zM16 11.528c-3.67 0-6.588 2.92-6.588 6.59S12.33 24.706 16 24.706s6.588-2.918 6.588-6.588-2.917-6.59-6.588-6.59zm0 11.296c-2.635 0-4.706-2.07-4.706-4.706 0-2.636 2.07-4.706 4.706-4.706 2.635 0 4.706 2.07 4.706 4.706 0 2.635-2.07 4.706-4.706 4.706zm-2.824-4.706c0 1.6 1.224 2.823 2.824 2.823v-1.88c-.565 0-.94-.37-.94-.94 0-.56.375-.94.94-.94V15.3c-1.6 0-2.824 1.224-2.824 2.824zm13.648-2.824c.752 0 1.41-.66 1.41-1.412 0-.753-.658-1.41-1.41-1.41-.753 0-1.412.657-1.412 1.41 0 .753.66 1.412 1.412 1.412z"/>
</svg>
