<svg xmlns="http://www.w3.org/2000/svg" viewBox="0 0 32 32">
	<path fill="#F3DF93" d="M16 12.625c-1.856 0-3.375 1.52-3.375 3.375 0 1.856 1.52 3.375 3.375 3.375 1.856 0 3.375-1.52 3.375-3.375 0-1.856-1.52-3.375-3.375-3.375zm0 4.22c-.506 0-.844-.34-.844-.845 0-.506.338-.844.844-.844s.844.338.844.844-.338.844-.844.844zM16 2.5C8.51 2.5 2.5 8.51 2.5 16S8.51 29.5 16 29.5 29.5 23.49 29.5 16 23.49 2.5 16 2.5zM5.03 16.59c-.336.17-.59.254-.843.254 0-7.003 5.654-12.657 12.657-12.657 0 .17-.17.422-.422.844-6.244.26-11.222 5.32-11.39 11.56zm3.376-1.012c-.337.253-.59.422-.844.422 0-4.64 3.797-8.438 8.438-8.438 0 .085-.17.422-.506.844-3.966.253-6.835 3.207-7.088 7.172zM16 21.063c-2.784 0-5.063-2.28-5.063-5.063 0-2.784 2.28-5.063 5.063-5.063 2.784 0 5.063 2.28 5.063 5.063 0 2.784-2.28 5.063-5.063 5.063z"/>
</svg>
