<svg viewBox="0 0 192 412" xmlns="http://www.w3.org/2000/svg">
	<path fill="currentColor" d="M123.847,0.118 C146.646,-0.087 169.436,0.037 192.235,0.046 C192.325,24.097 192.333,48.157 192.226,72.207 C177.492,72.181 162.748,72.243 148.014,72.181 C138.671,71.599 129.077,78.681 127.379,87.943 C127.155,104.036 127.298,120.138 127.307,136.232 C148.917,136.321 170.527,136.205 192.136,136.286 C190.554,159.567 187.666,182.742 184.278,205.827 C165.19,206.006 146.091,205.809 127.004,205.926 C126.834,274.591 127.093,343.256 126.87,411.921 C98.518,412.037 70.149,411.867 41.798,412.001 C41.261,343.327 41.842,274.618 41.503,205.935 C27.671,205.791 13.831,206.034 0,205.819 C0.053,182.734 0.018,159.65 0.026,136.573 C13.848,136.404 27.68,136.609 41.503,136.475 C41.923,114.033 41.082,91.565 41.941,69.142 C43.327,51.384 50.095,33.493 63.372,21.227 C79.438,5.929 102.29,0.762 123.847,0.118 Z" />
</svg>