<svg xmlns="http://www.w3.org/2000/svg" viewBox="0 0 128 128">
	<path fill="#FFF" d="M72.477.037C79.56-.027 86.64.01 93.723.014c.028 7.472.03 14.947-.002 22.42-4.57-.01-9.15.01-13.73-.01-2.9-.18-5.88 2.02-6.41 4.898-.07 5-.02 10.002-.02 15.002 6.72.028 13.43-.008 20.14.017-.49 7.24-1.39 14.44-2.44 21.61-5.93.06-11.86 0-17.79.03-.05 21.34.03 42.67-.04 64-8.8.04-17.62-.01-26.43.03-.16-21.33.02-42.68-.09-64.02-4.3-.04-8.6.03-12.89-.03.02-7.17.01-14.34.01-21.51 4.3-.05 8.59.02 12.89-.03.13-6.97-.13-13.95.14-20.92.43-5.51 2.54-11.07 6.66-14.88C58.68 1.84 65.78.24 72.48.04z"/>
</svg>
