<svg xmlns="http://www.w3.org/2000/svg" viewBox="0 0 32 32">
	<path fill="#C83E2C" d="M27.612 5.627c-6.174-6.17-16.23-6.17-22.405 0a1.26 1.26 0 0 0 0 1.79 1.26 1.26 0 0 0 1.792 0c5.17-5.173 13.54-5.173 18.72 0 .59.498 1.39.498 1.89 0 .5-.497.5-1.293 0-1.79zm1.394 2.19c-.3.496-.797.894-1.494.994.797 1.1 1.394 2.29 1.892 3.59.498 1.4.697 2.79.697 4.28 0 1.49-.19 2.89-.69 4.28-.4 1.2-.99 2.39-1.69 3.49.3-1.39.2-2.88-.29-4.28-2.09 3.59-4.18 7.07-6.17 10.65 2.29-.39 4.18-1.79 5.48-3.68l.6.6.2-.2c2.69-2.68 4.28-6.16 4.48-9.85.1-3.48-.9-7.06-2.99-9.85zM5.904 19.557L12.476 30.9c.797-.1 1.494-.597 1.892-1.293a36.714 36.714 0 0 0-6.472-11.144 3.08 3.08 0 0 0-1.992 1.094zm19.12-.996c-2.79 3.29-5.08 7.07-6.474 11.15.4.7 1.096 1.1 1.892 1.3l6.572-11.34c-.498-.69-1.195-1.09-1.99-1.09zm-21.51 2.39c-.5-1.39-.698-2.78-.698-4.27 0-1.49.2-2.88.697-4.28.4-1.29 1.096-2.48 1.892-3.58-.597-.1-1.095-.6-1.394-1.09-2.19 2.88-3.18 6.46-2.98 10.05.2 3.68 1.8 7.26 4.48 9.85l.2.2.6-.6c1.2 1.89 3.19 3.28 5.48 3.68-2.1-3.58-4.19-7.07-6.18-10.65-.6 1.3-.7 2.79-.4 4.18-.7-1.09-1.3-2.19-1.69-3.48z"/>
</svg>
