<svg xmlns="http://www.w3.org/2000/svg" viewBox="0 0 32 32">
	<path fill="#FFF" d="M26.177 6.978l-.143-.158c-1.203-1.334-2.81-2.07-4.524-2.07-1.715 0-3.322.734-4.525 2.07l-.983 1.09-.985-1.09c-1.2-1.334-2.808-2.07-4.524-2.07-1.715 0-3.322.734-4.524 2.068l-.15.16C4.65 8.284 4 10.014 4 11.848c0 1.836.648 3.566 1.825 4.872l.004.005.01.01 9.44 10.198c.18.2.44.317.72.317.27 0 .53-.116.72-.316l9.44-10.204-.14-.122.13.124v.003l.01-.01c1.18-1.31 1.83-3.04 1.83-4.875 0-1.836-.65-3.567-1.83-4.872zm-1.453 8.415l-8.722 9.422-8.72-9.42c-1.762-1.958-1.76-5.142.003-7.097l.144-.16c.82-.914 1.91-1.418 3.06-1.418 1.15 0 2.24.504 3.06 1.42l1.71 1.9c.18.207.45.324.73.324.27 0 .54-.117.73-.324l1.71-1.9c.82-.916 1.91-1.42 3.06-1.42s2.24.503 3.06 1.42l.14.158c1.76 1.956 1.76 5.14 0 7.095z"/>
</svg>
