<svg viewBox="0 0 113 113" xmlns="http://www.w3.org/2000/svg">
	<path fill="currentColor" fill-rule="evenodd" d="M100.1353,112.8057 L13.0583,112.8057 C5.8473,112.8057 0.0003,106.9567 0.0003,99.7407 L0.0003,12.6717 C0.0003,5.4597 5.8473,-0.3863 13.0583,-0.3863 L100.1353,-0.3863 C107.3473,-0.3863 113.1933,5.4597 113.1933,12.6717 L113.1933,99.7407 C113.1933,106.9567 107.3473,112.8057 100.1353,112.8057 L100.1353,112.8057 Z M56.5963,34.4407 C44.5733,34.4407 34.8283,44.1847 34.8283,56.2077 C34.8283,68.2287 44.5733,77.9777 56.5963,77.9777 C68.6193,77.9777 78.3663,68.2287 78.3663,56.2077 C78.3663,44.1847 68.6193,34.4407 56.5963,34.4407 L56.5963,34.4407 Z M100.1353,17.0247 C100.1353,14.6217 98.1853,12.6717 95.7773,12.6717 L82.7193,12.6717 C80.3143,12.6717 78.3663,14.6217 78.3663,17.0247 L78.3663,30.0877 C78.3663,32.4907 80.3143,34.4407 82.7193,34.4407 L95.7773,34.4407 C98.1853,34.4407 100.1353,32.4907 100.1353,30.0877 L100.1353,17.0247 Z M100.1353,47.4977 L90.2813,47.4977 C90.9993,50.2847 91.4233,53.1967 91.4233,56.2077 C91.4233,75.4457 75.8313,91.0367 56.5963,91.0367 C37.3623,91.0367 21.7693,75.4457 21.7693,56.2077 C21.7693,53.1967 22.1953,50.2847 22.9133,47.4977 L13.0583,47.4977 L13.0583,95.3907 C13.0583,97.7917 15.0083,99.7407 17.4163,99.7407 L95.7773,99.7407 C98.1853,99.7407 100.1353,97.7917 100.1353,95.3907 L100.1353,47.4977 Z" />
</svg>