<svg xmlns="http://www.w3.org/2000/svg" viewBox="0 0 128 128">
	<path fill="#FFF" d="M113.234 128H14.766C6.612 128 0 121.386 0 113.226v-98.46C0 6.61 6.612 0 14.766 0h98.468C121.39 0 128 6.61 128 14.766v98.46c0 8.16-6.61 14.774-14.766 14.774zM64 39.383c-13.596 0-24.616 11.02-24.616 24.615 0 13.593 11.02 24.618 24.615 24.618 13.59 0 24.61-11.025 24.61-24.618 0-13.596-11.02-24.615-24.62-24.615zm49.234-19.694c0-2.72-2.205-4.93-4.928-4.93H93.54c-2.72 0-4.923 2.2-4.923 4.92v14.77c0 2.72 2.203 4.92 4.923 4.92h14.766c2.723 0 4.928-2.21 4.928-4.92V19.69zm0 34.45H102.09c.813 3.15 1.292 6.44 1.292 9.85 0 21.75-17.63 39.38-39.383 39.38-21.75 0-39.39-17.63-39.39-39.39 0-3.41.48-6.7 1.29-9.85H14.76v54.16c0 2.71 2.205 4.92 4.928 4.92H108.3c2.723 0 4.928-2.21 4.928-4.92V54.15z"/>
</svg>
