<svg xmlns="http://www.w3.org/2000/svg" viewBox="0 0 32 32">
	<g fill="#C83E2C">
		<path d="M6.656 23.065A1 1 0 1 0 8.07 21.65l-4.666-4.665h8.932a1 1 0 0 0 0-2H3.423l4.648-4.648a1 1 0 1 0-1.41-1.414L.298 15.287a1 1 0 0 0 0 1.414l6.363 6.37z"/>
		<path d="M11.192 7.655l2.044 2.206A8.967 8.967 0 0 1 19.806 7a9 9 0 0 1 9 9 9 9 0 0 1-9 9 8.966 8.966 0 0 1-6.576-2.87L11 24.132C13.192 26.504 16.32 28 19.805 28c6.627 0 12-5.374 12-12 0-6.628-5.373-12-12-12a11.956 11.956 0 0 0-8.613 3.655z"/>
	</g>
</svg>
