<svg xmlns="http://www.w3.org/2000/svg" viewBox="0 0 32 32">
	<path fill="#C83E2C" d="M11 32V20H9v12h2zm1-21H4c-1.1 0-2 .9-2 2v9h2v-8c0-.6.4-1 1-1h6c.6 0 1 .4 1 1v8h2v-9c0-1.1-.9-2-2-2zm13 21h2V19h-2v13zM20 9c-1.1 0-2 .9-2 2v10h2v-9c0-.6.4-1 1-1h6c.6 0 1 .4 1 1v9h2V11c0-1.1-.9-2-2-2h-8zm1 23h2V19h-2v13zM12 6c0-2.2-1.8-4-4-4S4 3.8 4 6s1.8 4 4 4 4-1.8 4-4zM8 4c1.1 0 2 .9 2 2s-.9 2-2 2-2-.9-2-2 .9-2 2-2zm16 4c2.2 0 4-1.8 4-4s-1.8-4-4-4-4 1.8-4 4 1.8 4 4 4zm0-6c1.1 0 2 .9 2 2s-.9 2-2 2-2-.9-2-2 .9-2 2-2zM5 32h2V20H5v12z"/>
</svg>
