<svg xmlns="http://www.w3.org/2000/svg" viewBox="0 0 128 128">
	<path fill="#FFF" d="M128 24.314c-4.71 2.09-9.77 3.5-15.083 4.135 5.422-3.25 9.586-8.4 11.547-14.53a52.613 52.613 0 0 1-16.676 6.37A26.237 26.237 0 0 0 88.62 12c-14.504 0-26.262 11.75-26.262 26.26 0 2.05.233 4.06.68 5.98C41.213 43.15 21.863 32.69 8.91 16.8a26.14 26.14 0 0 0-3.555 13.202c0 9.11 4.637 17.14 11.683 21.85a26.152 26.152 0 0 1-11.895-3.285c-.002.11-.002.22-.002.33 0 12.724 9.06 23.34 21.07 25.75-2.2.6-4.52.92-6.92.92-1.69 0-3.33-.163-4.94-.47 3.34 10.434 13.04 18.026 24.53 18.24a52.688 52.688 0 0 1-32.61 11.24c-2.12 0-4.21-.125-6.26-.367 11.63 7.45 25.43 11.8 40.26 11.8 48.31 0 74.72-40.018 74.72-74.72 0-1.138-.02-2.27-.07-3.397 5.13-3.7 9.59-8.328 13.11-13.594"/>
</svg>
