<svg viewBox="0 0 273 222" xmlns="http://www.w3.org/2000/svg">
	<path fill="currentColor" d="M273.39,26.123 C263.331,30.584 252.521,33.599 241.175,34.955 C252.756,28.013 261.649,17.021 265.837,3.924 C255,10.351 242.996,15.019 230.22,17.535 C219.988,6.634 205.411,-0.178 189.279,-0.178 C158.302,-0.178 133.188,24.935 133.188,55.91 C133.188,60.306 133.685,64.587 134.641,68.692 C88.025,66.353 46.696,44.023 19.032,10.089 C14.204,18.373 11.438,28.008 11.438,38.287 C11.438,57.746 21.341,74.914 36.391,84.972 C27.196,84.681 18.548,82.158 10.985,77.957 C10.981,78.191 10.981,78.426 10.981,78.662 C10.981,105.838 30.315,128.508 55.974,133.66 C51.267,134.942 46.312,135.627 41.196,135.627 C37.582,135.627 34.068,135.276 30.644,134.621 C37.781,156.905 58.495,173.121 83.039,173.574 C63.843,188.617 39.658,197.584 13.38,197.584 C8.853,197.584 4.388,197.319 0,196.801 C24.822,212.715 54.305,222 85.98,222 C189.148,222 245.564,136.533 245.564,62.414 C245.564,59.982 245.51,57.563 245.402,55.158 C256.36,47.25 265.87,37.371 273.39,26.123" />
</svg>