<svg xmlns="http://www.w3.org/2000/svg" viewBox="0 0 128 128">
	<path fill="#FFF" d="M128 24.314c-4.71 2.09-9.77 3.5-15.083 4.135 5.422-3.25 9.586-8.4 11.547-14.53-5.074 3.01-10.694 5.19-16.676 6.37-4.79-5.1-11.615-8.29-19.168-8.29-14.504 0-26.262 11.75-26.262 26.26 0 2.05.233 4.06.68 5.98C41.213 43.15 21.863 32.69 8.91 16.8c-2.26 3.878-3.555 8.39-3.555 13.202 0 9.11 4.637 17.14 11.683 21.85-4.305-.136-8.354-1.318-11.895-3.285-.002.11-.002.22-.002.33 0 12.724 9.06 23.34 21.07 25.75-2.2.6-4.52.92-6.92.92-1.69 0-3.33-.163-4.94-.47 3.34 10.434 13.04 18.026 24.53 18.24-8.98 7.04-20.31 11.24-32.61 11.24-2.12 0-4.21-.125-6.26-.367 11.63 7.45 25.43 11.8 40.26 11.8 48.31 0 74.72-40.018 74.72-74.72 0-1.138-.02-2.27-.07-3.397 5.13-3.7 9.59-8.328 13.11-13.594"/>
</svg>
