<svg xmlns="http://www.w3.org/2000/svg" viewBox="0 0 32 32">
	<g fill="#C83E2C">
		<path d="M6.68 8.923c-.39-.39-1.024-.39-1.414 0-.39.39-.39 1.024 0 1.414l4.666 4.666H1c-.552 0-1 .448-1 1s.448 1 1 1h8.913L5.265 21.65c-.39.392-.39 1.025 0 1.415.39.39 1.024.39 1.414 0l6.36-6.365c.39-.39.39-1.022 0-1.412L6.68 8.923z"/>
		<path d="M11.192 7.655l2.044 2.206C14.88 8.11 17.21 7 19.806 7c4.97 0 9 4.028 9 9 0 4.97-4.03 9-9 9-2.6 0-4.933-1.11-6.576-2.87L11 24.132C13.192 26.504 16.32 28 19.805 28c6.627 0 12-5.374 12-12 0-6.628-5.373-12-12-12-3.382 0-6.432 1.404-8.613 3.655z"/>
	</g>
</svg>
