<svg xmlns="http://www.w3.org/2000/svg" viewBox="0 0 512 390">
	<path fill="#C83E2C" d="M445.19 274.462l-3.372 1.094-14.207 4.608-2.61.845.47 2.7c4.24 24.26 20.5 39.28 44.3 39.28 25.24 0 42.23-15.32 42.23-39.83 0-13.93-6.49-24.97-18.62-31.66l-26.54-11.74c-6.41-2.92-8.82-4.24-10.97-6.27-2.53-2.4-3.75-5.42-3.75-10.04 0-8.17 6.96-13.16 16.9-13.16 10.83 0 16.77 5.92 19.68 18.11l.78 3.24 3.21-.95 15.17-4.51 2.93-.88-.77-2.96c-5.57-21.43-19.44-33.37-40.69-33.37-22.43 0-39.35 14.06-39.35 35.6 0 10.28 3.12 17.91 9.27 23.77 4.73 4.51 10.17 7.41 20.57 11.71l10.76 4.41c7.51 3.02 10.89 4.69 13.87 7.22 3.64 3.08 5.44 6.87 5.44 12.3 0 11.14-7.8 17.67-20.06 17.67-13.43 0-20.66-7.9-23.87-23.77l-.71-3.46zM327 190.012v128.72h22.04v-52.446h17.826L398.873 323 418 311.5l-29.837-49.193c15.874-4.81 23.502-19.065 23.502-35.79 0-23.856-15.57-36.517-39.803-36.517l-44.862.012zM349 245v-35h22.35c11.656 0 17.65 5.904 17.65 15.858C389 237.64 380.465 245 366.65 245H349zm-98.926-55H228v93.287C228 305.214 243.386 321 269.405 321 295.332 321 311 305.015 311 284.242V190h-21.98v86.7c0 17.79-4.34 23.208-20.758 23.208-13.58 0-18.188-6.068-18.188-23.21V190zm-50.407 12.235c-8.424-9.603-19.748-14.294-31.674-14.234-12.223 0-23.568 4.76-31.95 14.47C126.298 213.75 121 231.1 121 254.6c0 23.54 5.374 40.87 15.23 52.12 8.4 9.584 19.71 14.28 31.77 14.28 12.053 0 23.368-4.694 31.77-14.284 9.853-11.25 15.226-28.587 15.23-52.118-.004-23.51-5.416-41.06-15.333-52.363zM144 254.595c0-11.515 1.322-21.963 4.446-30.092 3.906-10.163 10.164-15.54 19.54-15.503 9.4 0 15.664 5.39 19.568 15.54 3.124 8.12 4.446 18.548 4.446 30.055 0 11.464-1.302 21.807-4.41 29.89C183.703 294.615 177.426 300 168 300c-9.376 0-15.643-5.4-19.55-15.553-3.12-8.103-4.443-18.492-4.443-29.852H144zM244.1 121.35l-3.33 1.016-14.103 4.314-2.667.815.474 2.74c4.13 23.91 20.264 38.765 43.796 38.765 24.936 0 41.73-15.102 41.73-39.3 0-13.69-6.462-24.633-18.422-31.237l-.255-.127-25.905-11.408c-6.213-2.815-8.635-4.142-10.744-6.146-2.483-2.358-3.683-5.313-3.683-9.85 0-7.994 6.9-12.948 16.7-12.948 10.64 0 16.58 5.928 19.37 17.885l.77 3.25 3.21-.95 14.97-4.41 2.93-.87-.76-2.96C302.7 48.81 289 37 267.98 37c-22.194 0-38.946 13.92-38.946 35.178 0 10.13 3.087 17.665 9.153 23.446 4.678 4.456 10.07 7.337 20.345 11.58l10.386 4.244c7.484 2.985 10.85 4.64 13.816 7.142 3.612 3.042 5.405 6.79 5.405 12.164 0 10.934-7.71 17.358-19.78 17.358-13.26 0-20.37-7.73-23.58-23.36l-.69-3.403zM124 39v129h82v-20.51h-60.075v-38.953h49.648V88.122h-49.648v-28.61H206V39h-82zM28.124 147.27c-2.786 0-5.078-2.3-5.078-5.092V8.495c0-4.67-3.813-8.495-8.47-8.495H8.47C3.814 0 0 3.825 0 8.495V159.69c0 4.67 3.813 8.494 8.47 8.494h66.5c2.787 0 5.08 2.3 5.08 5.094v158.37c0 22.017-10.28 36.387-26.356 36.387-9.717 0-16.765-3.96-21.367-11.11-3.886-6.04-5.847-14.192-5.847-22.596V321.5c0-4.67-3.812-8.495-8.47-8.495H12c-4.656 0-8.47 3.824-8.47 8.495v11.387c0 18.583 5.334 33.272 15.018 43.276C27.32 385.233 39.328 390 52.263 390 81.45 390 103 368.812 103 333.85V155.67c0-4.622-3.765-8.4-8.47-8.4H28.124z"/>
</svg>
