<svg xmlns="http://www.w3.org/2000/svg" viewBox="0 0 64 64">
	<path fill="#C83E2C" d="M32 64c17.674 0 32-14.326 32-32S49.674 0 32 0 0 14.326 0 32s14.326 32 32 32zm.54-9c-2.814 0-6.126-1.886-6.126-7.052v-1.394c0-.574.497-1.066 1.076-1.066h.746c.58 0 1.076.492 1.076 1.066v1.558c0 .738.166 4.182 3.395 4.182 1.987 0 3.312-1.804 3.312-4.51V30.4c0-.327-.25-.655-.67-.655h-8.28c-.58 0-1.08-.492-1.08-1.066V10.06c0-.568.5-1.06 1.08-1.06h.74c.58 0 1.08.492 1.08 1.066v16.48c0 .33.24.657.66.657h8.36c.58 0 1.07.492 1.07 1.066v19.84C38.9 52.86 35.67 55 32.52 55z"/>
</svg>
