<svg viewBox="0 0 536 409" xmlns="http://www.w3.org/2000/svg">
	<style>path { fill: #C83E2C; }</style>
	<path d="M466.6285,292.146127 L465.895642,288.527639 L462.38377,289.666624 L447.58377,294.466624 L444.8629,295.349069 L445.35508,298.166798 C449.76991,323.4417 466.709556,339.09405 491.5,339.09405 C517.790916,339.09405 535.49405,323.139752 535.49405,297.6 C535.49405,283.092919 528.735412,271.591876 516.091281,264.615803 L515.96384,264.545491 L515.830694,264.486693 L488.430694,252.386693 C481.753369,249.351335 479.237533,247.975635 477.002965,245.858676 C474.36548,243.360006 473.09405,240.227089 473.09405,235.4 C473.09405,226.896102 480.339766,221.69405 490.7,221.69405 C501.981263,221.69405 508.172063,227.864418 511.195528,240.56297 L512.001973,243.950039 L515.339203,242.957319 L531.139203,238.257319 L534.188624,237.350213 L533.388056,234.271106 C527.584082,211.948131 513.133298,199.50595 491,199.50595 C467.62709,199.50595 450.00595,214.158311 450.00595,236.6 C450.00595,247.310193 453.261346,255.266585 459.656966,261.365234 C464.58374,266.06324 470.249208,269.089683 481.085554,273.564879 C481.62823,273.788994 482.181683,274.016473 482.934974,274.325308 C483.398678,274.515372 483.398678,274.515372 483.862992,274.705646 C484.327574,274.896079 484.517542,274.973988 484.792615,275.086936 C486.294953,275.703812 487.417571,276.169457 488.518095,276.634384 C489.126811,276.885723 489.735892,277.13383 490.459916,277.426247 C490.734579,277.537177 491.016656,277.650818 491.382778,277.798108 C491.842376,277.982949 491.842376,277.982949 492.299838,278.166984 C500.122332,281.315308 503.640489,283.059196 506.744997,285.691313 C510.527599,288.898344 512.40595,292.846512 512.40595,298.5 C512.40595,310.105426 504.273365,316.90595 491.5,316.90595 C477.507849,316.90595 469.976904,308.678867 466.6285,292.146127 L466.6285,292.146127 Z" />
	<path d="M345.7,200.10595 L345.6,200.10595 L342.30595,200.10595 L342.30595,203.4 L342.30595,331.8 L342.30595,335.09405 L345.6,335.09405 L362.1,335.09405 L365.39405,335.09405 L365.39405,331.8 L365.39405,276.8 L362.1,280.09405 L386,280.09405 L383.130304,278.417286 L415.930304,336.617286 L417.593923,339.569195 L420.497677,337.822881 L434.797677,329.222881 L437.629616,327.519757 L435.917428,324.693289 L404.417428,272.693289 L402.555863,277.552315 C419.185291,272.509844 430.99405,255.938969 430.99405,238.4 C430.99405,213.383813 414.683771,200.10595 389.3,200.10595 L345.7,200.10595 Z M383.9,258.80595 L362.2,258.80595 L365.49405,262.1 L365.49405,218.2 L362.2,221.49405 L388.8,221.49405 C400.955449,221.49405 407.20595,227.788261 407.20595,238.4 C407.20595,250.958876 398.306219,258.80595 383.9,258.80595 Z" />
	<path d="M261.69405,203.4 L261.69405,200.10595 L258.4,200.10595 L241.8,200.10595 L238.50595,200.10595 L238.50595,203.4 L238.50595,297.8 C238.50595,320.762228 254.668345,337.29405 282,337.29405 C309.235275,337.29405 325.69405,320.553124 325.69405,298.8 L325.69405,203.4 L325.69405,200.10595 L322.4,200.10595 L305.9,200.10595 L302.60595,200.10595 L302.60595,203.4 L302.60595,290.9 C302.60595,309.532674 298.045687,315.20595 280.8,315.20595 C266.534184,315.20595 261.69405,308.851097 261.69405,290.9 L261.69405,203.4 L261.69405,203.4 Z" />
	<path d="M224.59405,267.8 C224.59405,243.021538 218.949759,224.76969 208.634129,212.9242 C199.870097,202.860417 188.0904,197.945173 175.683853,198.00599 C162.969108,198.00595 151.167107,202.99345 142.448539,213.169265 C132.314575,224.997048 126.80595,243.169594 126.80595,267.8 C126.80595,292.469579 132.398957,310.62959 142.651462,322.423606 C151.3896,332.475564 163.158209,337.39405 175.7,337.39405 C197.114714,337.39405 210.978184,325.652712 218.417861,306.017109 C221.113019,298.903754 222.825735,291.099636 223.761747,282.921441 C224.397245,277.368924 224.59405,272.719724 224.59405,267.8 Z M150.59405,267.8 C150.59405,255.751978 151.971285,244.8213 155.226486,236.314784 C159.295342,225.682018 165.81745,220.054631 175.586718,220.094023 C185.378079,220.09405 191.90523,225.733808 195.973987,236.353521 C199.229487,244.850579 200.60595,255.760102 200.60595,267.8 C200.60595,279.793842 199.248694,290.615936 196.011197,299.072237 C191.952456,309.673617 185.419698,315.30595 175.6,315.30595 C165.830813,315.30595 159.300272,309.65524 155.225538,299.03274 C151.973573,290.555134 150.59405,279.684614 150.59405,267.8 Z" />
	<path d="M256.42686,131.33808 L255.699058,127.790044 L252.235785,128.85023 L237.535785,133.35023 L234.760335,134.199857 L235.253928,137.060163 C239.557194,161.997039 256.374973,177.49405 280.9,177.49405 C306.890839,177.49405 324.39405,161.741161 324.39405,136.5 C324.39405,122.220478 317.659629,110.806206 305.193286,103.916911 L305.063844,103.845377 L304.928512,103.78573 L277.928512,91.8857302 C271.454615,88.9489094 268.929646,87.5641247 266.73205,85.4750516 C264.144163,83.0149618 262.89405,79.9329076 262.89405,75.2 C262.89405,66.8621062 270.087426,61.69405 280.3,61.69405 C291.391345,61.69405 297.575731,67.8784357 300.4925,80.350141 L301.286669,83.7458965 L304.631663,82.7595522 L320.231663,78.1595522 L323.287337,77.2585199 L322.488921,74.1744417 C316.779567,52.1206612 302.51014,39.80595 280.6,39.80595 C257.467145,39.80595 240.00595,54.324966 240.00595,76.5 C240.00595,87.0673784 243.224316,94.9261814 249.548051,100.95612 C254.42241,105.60402 260.04326,108.609408 270.750872,113.034154 C271.284841,113.254808 271.834119,113.480692 272.559013,113.777998 C272.576984,113.785368 273.97296,114.357597 274.37556,114.522886 C275.857692,115.131381 276.946887,115.58274 278.020254,116.035295 C278.565602,116.258037 279.098699,116.473224 279.719339,116.721932 C279.995911,116.832762 280.280034,116.946327 280.648331,117.093322 C281.11096,117.277912 281.11096,117.277912 281.571411,117.461684 C289.370174,120.575659 292.878705,122.302474 295.972368,124.910553 C299.737722,128.084894 301.60595,131.994294 301.60595,137.6 C301.60595,149.005279 293.574483,155.70595 281,155.70595 C267.183682,155.70595 259.771405,147.642737 256.42686,131.33808 L256.42686,131.33808 Z" />
	<path d="M133.4,41.99015 L130.09015,41.99015 L130.09015,45.3 L130.09015,173.4 L130.09015,176.70985 L133.4,176.70985 L212.5,176.70985 L215.80985,176.70985 L215.80985,173.4 L215.80985,158.6 L215.80985,155.29015 L212.5,155.29015 L149.7,155.29015 L153.00985,158.6 L153.00985,111.3 L149.7,114.60985 L201.6,114.60985 L204.90985,114.60985 L204.90985,111.3 L204.90985,96.6 L204.90985,93.29015 L201.6,93.29015 L149.7,93.29015 L153.00985,96.6 L153.00985,60.1 L149.7,63.40985 L212.5,63.40985 L215.80985,63.40985 L215.80985,60.1 L215.80985,45.3 L215.80985,41.99015 L212.5,41.99015 L133.4,41.99015 L133.4,41.99015 Z" />
	<path d="M99.2,154.62335 L29.6,154.62335 C26.6812167,154.62335 24.27665,152.218783 24.27665,149.3 L24.27665,9.6 C24.27665,4.7187833 20.2812167,0.72335 15.4,0.72335 L9,0.72335 C4.1187833,0.72335 0.12335,4.7187833 0.12335,9.6 L0.12335,167.6 C0.12335,172.481217 4.1187833,176.47665 9,176.47665 L78.7,176.47665 C81.6187833,176.47665 84.02335,178.881217 84.02335,181.8 L84.02335,347.3 C84.02335,370.30687 73.2477587,385.32335 56.4,385.32335 C46.2152542,385.32335 38.8281801,381.18518 34.0052992,373.711654 C29.9322428,367.400054 27.87665,358.881779 27.87665,350.1 L27.87665,336.7 C27.87665,331.818783 23.8812167,327.82335 19,327.82335 L12.7,327.82335 C7.8187833,327.82335 3.82335,331.818783 3.82335,336.7 L3.82335,348.6 C3.82335,368.021209 9.41256447,383.371036 19.562833,393.825122 C28.757606,403.295113 41.3420058,408.27665 54.9,408.27665 C85.4924282,408.27665 108.07665,386.135256 108.07665,349.6 L108.07665,174.7 L108.07665,163.4 C108.07665,158.568783 104.131217,154.62335 99.2,154.62335 L99.2,154.62335 Z" />
</svg>