<svg xmlns="http://www.w3.org/2000/svg" viewBox="0 0 45 45">
	<g fill="#C83E2C">
		<path d="M29 21v-4c0-3.834-3.062-7-7-7-3.617 0-6.68 3.166-7 7v4c.303 3.254 2.294 6.03 5 7v2c-3.683.675-7.483 1.737-11 3 .45 1.017.93 1.523 1 2 4.087-1.84 8.098-2.79 12-3v-4c3.938.182 7-2.984 7-7zm-7 5c-2.76 0-5-2.24-5-5v-4c0-2.76 2.24-5 5-5s5 2.24 5 5v4c0 2.76-2.24 5-5 5z"/>
		<path d="M22.5 0C10.074 0 0 10.074 0 22.5S10.074 45 22.5 45 45 34.926 45 22.5c0-5.967-2.37-11.69-6.59-15.91C34.19 2.37 28.467 0 22.5 0zm0 43C11.178 43 2 33.822 2 22.5S11.178 2 22.5 2 43 11.178 43 22.5c0 5.437-2.16 10.65-6.004 14.496C33.15 40.84 27.936 43 22.5 43z"/>
		<path d="M24 32c3.664.313 7.26 1.285 11 3 .077-.527.554-1.086 1-2-3.764-1.622-7.84-2.752-12-3v2z"/>
	</g>
</svg>
