<svg viewBox="0 0 30 30" xmlns="http://www.w3.org/2000/svg">
	<style>path { fill: #C83E2C; }</style>

	<view id="burger" viewBox="0 0 30 30" />
	<view id="close" viewBox="30 0 30 30" />

	<path d="M45,12.8181818 L35.1818182,3 L33,5.18181818 L42.8181818,15 L33,24.8181818 L35.1818182,27 L45,17.1818182 L54.8181818,27 L57,24.8181818 L47.1818182,15 L57,5.18181818 L54.8181818,3 L45,12.8181818 L45,12.8181818 L45,12.8181818 Z" />
	<path d="M0,5 L30,5 L30,8 L0,8 L0,5 Z M0,14 L30,14 L30,17 L0,17 L0,14 Z M0,23 L30,23 L30,26 L0,26 L0,23 Z" />
</svg>