<svg xmlns="http://www.w3.org/2000/svg" version="1" viewBox="0 0 256 256">
	<path d="M114 .6C84.7 4.4 59.1 16.7 38.2 37.3 20 55.3 7.9 77.5 2.4 103c-2.6 11.9-2.6 38.1 0 50 5.4 25.2 16.9 46.5 34.9 64.8 18 18.2 40.2 30.3 65.7 35.8 11.9 2.6 38.1 2.6 50 0 25.5-5.5 47.7-17.6 65.7-35.8 18-18.3 29.5-39.6 34.9-64.8 2.6-11.9 2.6-38.1 0-50-5.5-25.5-17.6-47.7-35.8-65.7-18-17.6-38.3-28.8-62.8-34.4-8.3-1.9-33.1-3.3-41-2.3zm.1 37.1c1.1 1.3 1.5 8.9 1.9 36.2l.5 34.6 18.4.3c11.5.1 18.9.7 19.8 1.3 2.1 1.8 1.9 84.6-.3 91.8-5.2 17.5-28.5 24-40.6 11.3-5.6-5.8-7.1-9.7-7.6-19.5-.5-9.9.3-11.7 5.2-11.7 4.4 0 5.6 1.6 5.6 7.5 0 7.3 1.8 12.5 5.5 16.2 6.5 6.5 16.3 3.6 20-6 1.3-3.6 1.5-9.4 1.3-42.2l-.3-38-18.4-.3c-11.5-.1-18.9-.7-19.8-1.3-1.8-1.6-1.9-78.9-.1-80.7 1.7-1.7 7.3-1.5 8.9.5z"/>
</svg>
